<?xml version="1.0" encoding="UTF-8" standalone="no"?>
<svg
   version="1.1"
   id="Ebene_1"
   x="0px"
   y="0px"
   viewBox="0 0 306.7 91.6"
   style="enable-background:new 0 0 306.7 91.6;"
   xml:space="preserve"
   xmlns="http://www.w3.org/2000/svg"
   xmlns:svg="http://www.w3.org/2000/svg"><defs
   id="defs9" />&#10;<g
   id="g9">&#10;<g
   id="g5">&#10;<path
   style="fill:#445052;"
   d="M152.5,60.4c0,2-1.6,3.6-3.6,3.6s-3.6-1.6-3.6-3.6s1.6-3.6,3.6-3.6S152.5,58.3,152.5,60.4z"
   id="path1" />&#10;<path
   style="fill:#445052;"
   d="M168.3,63.2h-5.1V37.9h-2.8v-4.8h2.8V20.3c0-7.3,2.9-10.8,8.8-10.8c1.5,0,2.2,0.1,4,0.6v5.2 c-1.6-0.5-2.3-0.6-3.5-0.6c-3.3,0-4.1,1.5-4.1,6.8v11.6h7.6v4.8h-7.6L168.3,63.2L168.3,63.2z"
   id="path2" />&#10;<path
   style="fill:#445052;"
   d="M185.9,63.2h-5.1V10.3h5.1V63.2z"
   id="path3" />&#10;<path
   style="fill:#445052;"
   d="M225.1,48.2c0,8.9-7,15.8-16,15.8s-15.9-7-15.9-16.1c0-8.5,7.2-15.5,15.9-15.5 S225.1,39.3,225.1,48.2L225.1,48.2z M198.5,48.2c0,6.4,4.5,11.1,10.5,11.1s10.7-4.7,10.7-11.1s-4.4-11.1-10.7-11.1 S198.5,41.9,198.5,48.2z"
   id="path4" />&#10;<path
   style="fill:#445052;"
   d="M241.8,53.5l9.4-22.7l9.4,22.7l9-20.4h5.8l-15,32.2l-9.3-22.4l-9.3,22.4l-14.8-32.2h5.8L241.8,53.5 L241.8,53.5z"
   id="path5" />&#10;</g>&#10;<path
   style="fill:#E1043D;"
   d="M15.6,64.4c-4.2,0-8-1.2-10.6-3.3C0.4,57.3,0,51.4,0,46.8V0h9.2v45.8c0,2.7,0,5.5,1.1,7.3 c1.4,2.2,3.8,2.7,5.8,2.7c1.9,0,4.1-0.4,6-1.1v8.5C21.1,63.6,18.9,64.4,15.6,64.4L15.6,64.4z"
   id="path6" />&#10;<g
   id="g8">&#10;<path
   style="fill:#E1043D;"
   d="M23.4,36.8c0-15.8,11.7-27.5,27.6-27.5s27.7,11.7,27.7,27.5S66.9,64.2,51.1,64.2 S23.4,52.6,23.4,36.8z M32.7,36.8c0,12.8,9,19.4,18.3,19.4s18.3-6.7,18.3-19.3s-8.8-19.5-18.3-19.5S32.7,24.1,32.7,36.8z"
   id="path7" />&#10;<path
   style="fill:#E1043D;"
   d="M124.6,10.5h9v50.9c0,5.7,0,13.7-5,20.5c-3.9,5.3-11.1,9.7-20.9,9.7c-8.9,0-15.1-3.5-18.6-7 c-3.5-3.5-6.8-9.2-6.8-16.8h8.9c0,4.4,1.8,8.3,4,10.8c3.8,4.2,8.6,5,12.6,5c6.4,0,10.8-2.3,13.8-7.3c2.6-4.3,2.9-8.9,2.9-13.3 v-7.5c-3,3.9-8.7,8.8-17.8,8.8c-7.7,0-13.8-3-17.8-7c-3.5-3.5-7.5-10-7.5-20.6s3.8-16.5,7.5-20.2c4.4-4.3,10.8-7,17.8-7 c7.7,0,13.7,3.3,17.8,8.7L124.6,10.5L124.6,10.5z M95.9,22.2c-4.4,4.5-5.3,10-5.3,14.3c0,4.5,0.9,10.7,5.9,15.3 c2.9,2.6,6.4,4.3,11.2,4.3s8.6-1.5,11.4-4.4c3.5-3.4,5.9-8.9,5.9-15.1s-2.3-11.6-5.5-14.7c-2.9-2.9-7.2-4.6-11.8-4.6 C102.2,17.3,98.5,19.7,95.9,22.2L95.9,22.2z"
   id="path8" />&#10;</g>&#10;</g>&#10;<path
   style="fill:#E1043D;"
   d="M282.4,10.6l9.2,20.7l9.2-20.7h5.9l-15.1,32.7l-15.1-32.7C276.5,10.6,282.4,10.6,282.4,10.6z"
   id="path9" />&#10;</svg>
