<?xml version="1.0" encoding="UTF-8" standalone="no"?>
<svg
   id="Ebene_1"
   data-name="Ebene 1"
   viewBox="0 0 428.31 91.57"
   version="1.1"
   xmlns="http://www.w3.org/2000/svg"
   xmlns:svg="http://www.w3.org/2000/svg">
  <defs
     id="defs1">
    <style
       id="style1">&#10;      .cls-1 {&#10;        fill: #445052;&#10;      }&#10;&#10;      .cls-1, .cls-2 {&#10;        stroke-width: 0px;&#10;      }&#10;&#10;      .cls-2 {&#10;        fill: #e1043d;&#10;      }&#10;    </style>
  </defs>
  <g
     id="g4">
    <path
       class="cls-1"
       d="m29.55,22.28H13.5v8.68h15.16v11.44h-15.16v8.95h16.05v11.44H0V10.85h29.55v11.43Z"
       id="path1" />
    <path
       class="cls-1"
       d="m71.09,53.76h-19.29l-3.1,9.02h-14.4L54.07,10.85h14.74l19.77,51.94h-14.4l-3.1-9.02Zm-3.58-10.26l-6.06-17.29-6.06,17.29h12.13Z"
       id="path2" />
    <path
       class="cls-1"
       d="m121.85,24.14c-1.47-1.19-2.94-2.08-4.41-2.65s-2.89-.86-4.27-.86c-1.74,0-3.17.41-4.27,1.24-1.1.83-1.65,1.91-1.65,3.24,0,.92.27,1.68.83,2.27.55.6,1.27,1.11,2.17,1.55.89.44,1.91.82,3.03,1.14,1.13.32,2.24.67,3.34,1.03,4.41,1.47,7.64,3.43,9.68,5.89,2.04,2.46,3.07,5.66,3.07,9.61,0,2.66-.45,5.07-1.34,7.23-.9,2.16-2.21,4.01-3.93,5.54-1.72,1.54-3.84,2.73-6.34,3.58-2.5.85-5.34,1.28-8.51,1.28-6.57,0-12.65-1.95-18.26-5.86l5.79-10.88c2.02,1.79,4.02,3.12,5.99,4,1.98.87,3.93,1.31,5.86,1.31,2.21,0,3.85-.5,4.93-1.51,1.08-1.01,1.62-2.16,1.62-3.44,0-.78-.14-1.46-.41-2.03-.28-.57-.74-1.1-1.38-1.58-.64-.48-1.48-.93-2.51-1.34-1.03-.41-2.28-.87-3.75-1.38-1.75-.55-3.46-1.16-5.13-1.82-1.68-.67-3.17-1.55-4.48-2.65-1.31-1.1-2.37-2.49-3.17-4.17-.8-1.68-1.21-3.8-1.21-6.37s.42-4.9,1.27-6.99c.85-2.09,2.04-3.88,3.58-5.37,1.54-1.49,3.42-2.65,5.65-3.48,2.23-.83,4.72-1.24,7.47-1.24,2.57,0,5.26.36,8.06,1.07,2.8.71,5.49,1.75,8.06,3.13l-5.37,10.54Z"
       id="path3" />
    <path
       class="cls-1"
       d="m148.22,35.72l-17.47-24.91h14.87l8.89,13.09,8.83-13.09h14.87l-17.54,24.91v27.03h-12.46v-27.03Z"
       id="path4" />
  </g>
  <g
     id="g9">
    <path
       class="cls-2"
       d="m219.23,10.76h9.02v50.74c0,5.64,0,13.66-5.01,20.42-3.88,5.26-11.03,9.65-20.8,9.65-8.9,0-15.03-3.51-18.54-7.02-3.51-3.51-6.77-9.15-6.77-16.79h8.9c0,4.39,1.75,8.27,4.01,10.77,3.76,4.13,8.52,5.01,12.53,5.01,6.39,0,10.77-2.25,13.78-7.27,2.63-4.26,2.88-8.89,2.88-13.28v-7.52c-3.01,3.88-8.64,8.77-17.79,8.77-7.64,0-13.78-3.01-17.79-7.02-3.51-3.51-7.52-10.02-7.52-20.55s3.76-16.41,7.52-20.17c4.39-4.26,10.77-7.02,17.79-7.02,7.64,0,13.66,3.26,17.79,8.64v-7.39Zm-28.56,11.65c-4.39,4.51-5.26,10.02-5.26,14.28,0,4.51.88,10.65,5.89,15.28,2.88,2.63,6.39,4.26,11.15,4.26s8.52-1.5,11.4-4.39c3.51-3.38,5.89-8.89,5.89-15.03s-2.26-11.53-5.51-14.66c-2.88-2.88-7.14-4.64-11.78-4.64-5.51,0-9.27,2.38-11.78,4.89Z"
       id="path5" />
    <path
       class="cls-2"
       d="m239.02,10.76h9.02v5.64c.88-1.38,4.76-6.89,11.78-6.89,2.76,0,5.76,1,8.02,2.13l-4.26,8.14c-2-1.38-3.88-1.75-5.26-1.75-3.63,0-5.89,1.5-7.27,3.26-1.5,2-3.01,5.51-3.01,14.03v27.44h-9.02V10.76Z"
       id="path6" />
    <path
       class="cls-2"
       d="m307.04,10.76h9.02v51.99h-9.02v-7.27c-3.01,3.88-8.64,8.77-17.79,8.77-13.15,0-25.31-9.27-25.31-27.56s12.03-27.19,25.31-27.19c10.02,0,15.41,5.51,17.79,8.64v-7.39Zm-33.83,25.93c0,11.15,6.26,19.54,17.04,19.54s17.29-9.15,17.29-19.42c0-13.41-9.27-19.29-17.29-19.29-8.9,0-17.04,6.51-17.04,19.17Z"
       id="path7" />
    <path
       class="cls-2"
       d="m335.85,77.28h-9.02V10.76h9.02v7.27c6.14-7.64,14.03-8.52,17.79-8.52,16.29,0,25.31,13.53,25.31,27.56s-9.15,27.19-24.93,27.19c-8.39,0-14.28-3.76-18.17-8.77v21.79Zm33.83-40.21c0-12.78-8.64-19.54-17.04-19.54s-17.29,6.89-17.29,19.42c0,10.65,6.77,19.29,17.41,19.29s16.91-8.77,16.91-19.17Z"
       id="path8" />
    <path
       class="cls-2"
       d="m386.46,0h9.02v16.78c1.63-2.13,6.26-7.27,14.91-7.27,6.14,0,11.78,2.51,14.91,7.14,2.63,3.88,3.01,8.14,3.01,13.91v32.2h-9.02v-31.95c0-3.13-.25-6.77-2.38-9.52-1.75-2.25-4.51-3.76-8.52-3.76-3.13,0-6.51.88-9.15,4.01-3.51,4.13-3.76,10.27-3.76,14.03v27.19h-9.02V0Z"
       id="path9" />
  </g>
</svg>
