<?xml version="1.0" encoding="UTF-8" standalone="no"?>
<!-- Created with Inkscape (http://www.inkscape.org/) -->

<svg
   width="114.57568mm"
   height="76.531082mm"
   viewBox="0 0 114.57568 76.531082"
   version="1.1"
   id="svg1"
   xml:space="preserve"
   xmlns="http://www.w3.org/2000/svg"
   xmlns:svg="http://www.w3.org/2000/svg"><defs
     id="defs1" /><g
     id="layer1"
     transform="translate(-13.084086,-119.40275)"><rect
       style="fill:#2d2d2d;fill-opacity:1;stroke:#e4e4e4;stroke-width:1.44;stroke-linecap:round;stroke-linejoin:round;stroke-miterlimit:3.7;stroke-dasharray:none;stroke-opacity:1"
       id="rect1"
       width="44.292213"
       height="69.523933"
       x="82.647552"
       y="125.6899"
       ry="2.3338354" /><rect
       style="fill:#2d2d2d;fill-opacity:1;stroke:#e4e4e4;stroke-width:1.17665;stroke-linecap:round;stroke-linejoin:round;stroke-miterlimit:3.7;stroke-dasharray:none;stroke-opacity:1"
       id="rect1-2"
       width="44.555557"
       height="46.145882"
       x="13.672411"
       y="125.66129"
       ry="1.5490621" /><path
       style="font-style:italic;font-weight:bold;font-size:5.85149px;line-height:1.25;font-family:Barlow;-inkscape-font-specification:'Barlow Bold Italic';letter-spacing:0px;word-spacing:0px;fill:#fcfcfc;stroke-width:0.337586"
       d="m 19.848344,120.42486 q -0.0059,0.0293 -0.02926,0.0527 -0.01755,0.0175 -0.04681,0.0175 H 17.90565 q -0.0117,0 -0.02341,0.0117 -0.0059,0.006 -0.0059,0.0175 l -0.111178,0.90698 q 0,0.0293 0.02341,0.0293 h 1.222961 q 0.02926,0 0.04681,0.0234 0.01756,0.0175 0.0117,0.0468 l -0.07022,0.56759 q -0.0059,0.0293 -0.02926,0.0527 -0.01756,0.0175 -0.04681,0.0175 h -1.222962 q -0.02926,0 -0.02926,0.0293 l -0.11703,0.94794 q 0,0.0293 0.02341,0.0293 h 1.860774 q 0.06437,0 0.06437,0.0702 l -0.07022,0.5676 q -0.0059,0.0293 -0.02926,0.0527 -0.01755,0.0176 -0.04681,0.0176 H 16.7295 q -0.02926,0 -0.04681,-0.0176 -0.01755,-0.0234 -0.0117,-0.0527 l 0.485674,-3.95561 q 0.0059,-0.0293 0.02341,-0.0468 0.02341,-0.0234 0.05266,-0.0234 h 2.621468 q 0.02926,0 0.04681,0.0234 0.02341,0.0175 0.01755,0.0468 z m -0.02926,3.45823 q -0.05266,0 -0.05266,-0.041 0,-0.0234 0.01756,-0.0468 l 1.082525,-1.3985 q 0.0117,-0.0234 0.0059,-0.0351 l -0.74314,-1.39851 q -0.0059,-0.0117 -0.0059,-0.0292 0,-0.0585 0.06437,-0.0585 h 0.708031 q 0.04681,0 0.07607,0.0468 l 0.409604,0.80166 q 0.01756,0.0293 0.04096,0 l 0.608555,-0.80166 q 0.03511,-0.0468 0.08777,-0.0468 h 0.760694 q 0.04096,0 0.04096,0.0351 0,0.0234 -0.01755,0.0527 l -1.076674,1.39851 q -0.0117,0.0234 -0.0059,0.0351 l 0.737288,1.3985 q 0.0117,0.0234 0.0117,0.0351 0,0.0234 -0.01755,0.041 -0.01755,0.0117 -0.04681,0.0117 h -0.713881 q -0.05266,0 -0.07022,-0.0468 l -0.415456,-0.80166 q -0.0059,-0.0351 -0.03511,0 l -0.608555,0.80166 q -0.02926,0.0468 -0.08192,0.0468 z m 5.131756,-2.41667 q -0.0059,0.0293 -0.02926,0.0527 -0.01756,0.0175 -0.04681,0.0175 h -0.544189 q -0.02341,0 -0.03511,0.0293 l -0.152139,1.24051 q -0.0059,0.0351 -0.0059,0.0936 0,0.28672 0.280872,0.28672 h 0.187247 q 0.02926,0 0.04681,0.0234 0.02341,0.0175 0.01756,0.0468 l -0.07022,0.55589 q -0.0117,0.0702 -0.07607,0.0761 -0.23406,0.0117 -0.345238,0.0117 -0.433011,0 -0.649516,-0.12873 -0.210653,-0.13459 -0.210653,-0.48567 0,-0.0468 0.0117,-0.15214 l 0.193099,-1.5682 q 0.0117,-0.0293 -0.02341,-0.0293 h -0.321832 q -0.02926,0 -0.04681,-0.0175 -0.01755,-0.0234 -0.0117,-0.0527 l 0.06437,-0.52078 q 0,-0.0293 0.02341,-0.0468 0.02341,-0.0234 0.05266,-0.0234 h 0.321832 q 0.02926,0 0.02926,-0.0293 l 0.08777,-0.69632 q 0.0059,-0.0293 0.02341,-0.0468 0.02341,-0.0234 0.05266,-0.0234 h 0.637812 q 0.02926,0 0.04681,0.0234 0.01756,0.0176 0.0117,0.0468 l -0.08777,0.69632 q 0,0.0293 0.02926,0.0293 h 0.544189 q 0.02926,0 0.04681,0.0234 0.01755,0.0175 0.0117,0.0468 z m 2.949149,0.60271 q 0.0059,0.18139 -0.03511,0.49737 -0.01755,0.0702 -0.08192,0.0702 h -1.755447 q -0.02926,0 -0.02926,0.0293 0.0059,0.12873 0.03511,0.23406 0.11703,0.32768 0.561743,0.32768 0.356941,-0.006 0.614407,-0.30428 0.04681,-0.0644 0.08777,-0.0117 l 0.362792,0.41546 q 0.01756,0.0234 0.01756,0.0468 0,0.0293 -0.02341,0.0527 -0.216505,0.23991 -0.532486,0.3745 -0.310129,0.12873 -0.661218,0.12873 -0.485674,0 -0.795803,-0.22821 -0.310129,-0.22821 -0.409604,-0.63781 -0.04681,-0.16384 -0.04681,-0.41546 0,-0.14043 0.01756,-0.29842 0.02341,-0.32769 0.15799,-0.62026 0.181396,-0.41546 0.538337,-0.66122 0.362792,-0.24576 0.807506,-0.24576 0.567594,0 0.86602,0.33938 0.298426,0.33939 0.304278,0.90699 z m -1.252219,-0.53249 q -0.362793,0 -0.514931,0.34524 -0.04681,0.11703 -0.06437,0.18725 0,0.0293 0.02341,0.0293 h 0.98305 q 0.02926,0 0.02926,-0.0293 0,-0.0702 -0.0117,-0.16385 -0.02926,-0.17554 -0.146287,-0.26917 -0.111179,-0.0995 -0.298426,-0.0995 z m 3.376313,-0.70218 q 0.204802,0 0.315981,0.0819 0.04681,0.0234 0.02341,0.0878 l -0.198951,0.66707 q -0.01755,0.0702 -0.08777,0.041 -0.07607,-0.0293 -0.198951,-0.0293 -0.04096,0 -0.122881,0.0117 -0.204802,0.0175 -0.368644,0.15799 -0.15799,0.14044 -0.181396,0.36279 l -0.198951,1.59746 q -0.0059,0.0293 -0.02926,0.0527 -0.01756,0.0176 -0.04681,0.0176 h -0.661219 q -0.02926,0 -0.04681,-0.0176 -0.01755,-0.0234 -0.0117,-0.0527 l 0.35109,-2.86723 q 0.0059,-0.0293 0.02341,-0.0468 0.02341,-0.0234 0.05266,-0.0234 h 0.661218 q 0.02926,0 0.04681,0.0234 0.01755,0.0175 0.0117,0.0468 l -0.02341,0.22236 q -0.0059,0.0175 0.0059,0.0234 0.0117,0.006 0.02341,-0.006 0.263317,-0.35109 0.661218,-0.35109 z m 2.246971,-0.006 q 0.409604,0 0.649516,0.23406 0.239911,0.23406 0.239911,0.64951 0,0.0527 -0.0117,0.1814 l -0.23406,1.91929 q -0.0059,0.0293 -0.02926,0.0527 -0.01756,0.0176 -0.04681,0.0176 h -0.661219 q -0.06437,0 -0.06437,-0.0702 l 0.216505,-1.7496 q 0.0059,-0.0293 0.0059,-0.0936 0,-0.1931 -0.111179,-0.31013 -0.111178,-0.12288 -0.292574,-0.12288 -0.210654,0 -0.356941,0.14629 -0.146287,0.14043 -0.175545,0.38034 l -0.216505,1.7496 q -0.0059,0.0293 -0.02926,0.0527 -0.01755,0.0176 -0.04681,0.0176 h -0.661219 q -0.02926,0 -0.04681,-0.0176 -0.01755,-0.0234 -0.0117,-0.0527 l 0.35109,-2.86723 q 0.0059,-0.0293 0.02341,-0.0468 0.02341,-0.0234 0.05266,-0.0234 h 0.661219 q 0.02926,0 0.04681,0.0234 0.01756,0.0175 0.0117,0.0468 l -0.02341,0.2048 q 0,0.0176 0.0059,0.0234 0.0117,0.006 0.02341,-0.006 0.263317,-0.33939 0.731436,-0.33939 z m 3.376315,0.11703 q 0.0059,-0.0293 0.02341,-0.0468 0.02341,-0.0234 0.05266,-0.0234 h 0.66707 q 0.02926,0 0.04681,0.0234 0.01755,0.0175 0.0117,0.0468 l -0.35109,2.86723 q -0.0059,0.0293 -0.02926,0.0527 -0.01755,0.0176 -0.04681,0.0176 h -0.66707 q -0.02926,0 -0.04681,-0.0176 -0.01755,-0.0234 -0.0117,-0.0527 l 0.02926,-0.25161 q 0.0059,-0.0234 -0.0059,-0.0234 -0.0117,-0.006 -0.02341,0.0117 -0.280871,0.38035 -0.760693,0.38035 -0.374496,0 -0.637813,-0.23406 -0.263317,-0.23991 -0.321832,-0.64366 -0.01755,-0.12289 -0.01755,-0.25162 0,-0.17554 0.02926,-0.42716 0.05851,-0.45641 0.187248,-0.74899 0.15799,-0.35109 0.468119,-0.57344 0.315981,-0.22236 0.70803,-0.22236 0.46812,0 0.637813,0.33939 0.0117,0.0175 0.01755,0.0175 0.0117,0 0.01756,-0.0234 z m -0.304278,1.93099 q 0.04681,-0.0878 0.07607,-0.1931 0.02926,-0.10533 0.05266,-0.29842 0.02341,-0.15799 0.02341,-0.27502 0,-0.0995 -0.03511,-0.23992 -0.02926,-0.15213 -0.134584,-0.23991 -0.105327,-0.0936 -0.269169,-0.0936 -0.169693,0 -0.304277,0.0936 -0.128733,0.0936 -0.198951,0.24577 -0.09362,0.17554 -0.128733,0.50322 -0.02341,0.16385 -0.02341,0.28673 0,0.11118 0.02926,0.21065 0.02926,0.15799 0.140436,0.25161 0.111178,0.0936 0.280871,0.0936 0.169693,0 0.292575,-0.0936 0.128732,-0.0936 0.19895,-0.25161 z m 1.404362,1.00646 q -0.02926,0 -0.04681,-0.0176 -0.01755,-0.0234 -0.0117,-0.0527 l 0.485674,-3.95561 q 0,-0.0293 0.02341,-0.0468 0.02341,-0.0234 0.05266,-0.0234 h 0.661219 q 0.02926,0 0.04681,0.0234 0.01755,0.0175 0.0117,0.0468 l -0.485674,3.95561 q -0.0059,0.0293 -0.02926,0.0527 -0.01756,0.0176 -0.04681,0.0176 z m 3.610369,0.041 q -0.538337,0 -0.848466,-0.21066 -0.310129,-0.2165 -0.310129,-0.56759 0,-0.0585 0.0059,-0.0936 l 0.0059,-0.0585 q 0.0059,-0.0293 0.02341,-0.0468 0.02341,-0.0234 0.05266,-0.0234 h 0.631961 q 0.02926,0 0.04681,0.0234 0.01756,0.0175 0.0117,0.0468 v 0.006 q -0.01755,0.12873 0.111179,0.22236 0.128732,0.0878 0.339386,0.0878 0.198951,0 0.327683,-0.0819 0.134585,-0.0878 0.134585,-0.2165 0,-0.0936 -0.09948,-0.14044 -0.09947,-0.0527 -0.304277,-0.10533 -0.257466,-0.0761 -0.403753,-0.13458 -0.31598,-0.11703 -0.503228,-0.28087 -0.187248,-0.16384 -0.187248,-0.46227 0,-0.31598 0.169693,-0.55589 0.169694,-0.23991 0.46812,-0.36865 0.298426,-0.12873 0.672921,-0.12873 0.50908,0 0.801654,0.23406 0.298426,0.22821 0.298426,0.6027 0,0.0761 -0.0059,0.11118 -0.0059,0.0293 -0.02926,0.0527 -0.01755,0.0175 -0.04681,0.0175 h -0.608555 q -0.02926,0 -0.04681,-0.0175 -0.01755,-0.0234 -0.0117,-0.0527 0.0117,-0.12873 -0.105326,-0.2165 -0.111179,-0.0878 -0.321832,-0.0878 -0.198951,0 -0.333535,0.0761 -0.128733,0.0761 -0.128733,0.21066 0,0.10532 0.111178,0.16384 0.111179,0.0527 0.362793,0.11703 0.210653,0.0527 0.298426,0.0819 0.356941,0.11118 0.561743,0.28672 0.204802,0.1697 0.204802,0.47983 0,0.0702 -0.0059,0.11117 -0.05851,0.43301 -0.421307,0.67878 -0.362792,0.23991 -0.918684,0.23991 z m 2.206013,-0.041 q -0.05851,0 -0.07022,-0.0585 l -0.468119,-2.87308 v -0.0117 q 0,-0.0293 0.01755,-0.0468 0.02341,-0.0234 0.05266,-0.0234 h 0.684625 q 0.07022,0 0.07607,0.0585 l 0.187248,1.76715 q 0.0059,0.0176 0.01755,0.0176 0.0117,0 0.01755,-0.0176 l 0.643664,-1.76715 q 0.02341,-0.0585 0.08777,-0.0585 h 0.596852 q 0.06437,0 0.07022,0.0585 l 0.228208,1.77301 q 0.0059,0.0175 0.01755,0.0175 0.0117,0 0.01756,-0.0175 l 0.661218,-1.77301 q 0.02341,-0.0585 0.08777,-0.0585 l 0.678773,0.0117 q 0.03511,0 0.04681,0.0234 0.0117,0.0175 0,0.0527 l -1.182001,2.86723 q -0.01755,0.0585 -0.07607,0.0585 h -0.690476 q -0.05851,0 -0.07022,-0.0585 l -0.245762,-1.5682 q 0,-0.0175 -0.0117,-0.0175 -0.0117,0 -0.02341,0.0175 l -0.579298,1.5682 q -0.01755,0.0585 -0.08192,0.0585 z m 4.564163,-3.34706 q -0.175544,0 -0.286723,-0.11117 -0.111178,-0.11118 -0.111178,-0.28673 0,-0.2282 0.146287,-0.37449 0.152139,-0.15214 0.362793,-0.15214 0.181396,0 0.286723,0.10533 0.111178,0.10532 0.111178,0.28672 0,0.22236 -0.152139,0.38035 -0.146287,0.15213 -0.356941,0.15213 z m -0.74899,3.34706 q -0.06437,0 -0.06437,-0.0702 l 0.356941,-2.87308 q 0.0059,-0.0293 0.02341,-0.0468 0.02341,-0.0234 0.05266,-0.0234 h 0.661218 q 0.02926,0 0.04681,0.0234 0.01755,0.0175 0.0117,0.0468 l -0.351089,2.87308 q -0.0059,0.0293 -0.02926,0.0527 -0.01755,0.0176 -0.04681,0.0176 z m 3.323644,-2.41667 q -0.0059,0.0293 -0.02926,0.0527 -0.01756,0.0175 -0.04681,0.0175 h -0.544189 q -0.02341,0 -0.03511,0.0293 l -0.152139,1.24051 q -0.0059,0.0351 -0.0059,0.0936 0,0.28672 0.280872,0.28672 h 0.187247 q 0.02926,0 0.04681,0.0234 0.02341,0.0175 0.01756,0.0468 l -0.07022,0.55589 q -0.0117,0.0702 -0.07607,0.0761 -0.23406,0.0117 -0.345238,0.0117 -0.433011,0 -0.649516,-0.12873 -0.210653,-0.13459 -0.210653,-0.48567 0,-0.0468 0.0117,-0.15214 l 0.193099,-1.5682 q 0.0117,-0.0293 -0.02341,-0.0293 H 47.92965 q -0.02926,0 -0.04681,-0.0175 -0.01755,-0.0234 -0.0117,-0.0527 l 0.06437,-0.52078 q 0,-0.0293 0.02341,-0.0468 0.02341,-0.0234 0.05266,-0.0234 h 0.321832 q 0.02926,0 0.02926,-0.0293 l 0.08777,-0.69632 q 0.0059,-0.0293 0.02341,-0.0468 0.02341,-0.0234 0.05266,-0.0234 h 0.637812 q 0.02926,0 0.04681,0.0234 0.01756,0.0176 0.0117,0.0468 l -0.08777,0.69632 q 0,0.0293 0.02926,0.0293 h 0.544189 q 0.02926,0 0.04681,0.0234 0.01755,0.0175 0.0117,0.0468 z m 1.42191,2.46348 q -0.450565,0 -0.754843,-0.23406 -0.304277,-0.23406 -0.397901,-0.64366 -0.03511,-0.1697 -0.03511,-0.35695 0,-0.0995 0.02341,-0.33353 0.04681,-0.3745 0.181396,-0.67877 0.187248,-0.3979 0.55004,-0.62611 0.362793,-0.22821 0.813357,-0.22821 0.456417,0 0.766546,0.23406 0.31598,0.23406 0.386198,0.591 0.02341,0.0878 0.02341,0.21065 0,0.0293 -0.02341,0.0527 -0.01755,0.0175 -0.04681,0.0234 l -0.661218,0.0995 h -0.0117 q -0.05851,0 -0.05851,-0.0585 l -0.0059,-0.0936 q -0.02341,-0.15214 -0.146287,-0.25162 -0.122881,-0.0995 -0.310129,-0.0995 -0.181396,0 -0.321832,0.0936 -0.134584,0.0936 -0.204802,0.25747 -0.08777,0.18725 -0.122881,0.47982 -0.01756,0.14629 -0.01756,0.26917 0,0.12873 0.01756,0.21065 0.02926,0.17555 0.140435,0.27502 0.111179,0.0995 0.298426,0.0995 0.181397,0 0.321832,-0.0936 0.146288,-0.0995 0.216506,-0.26916 0.0117,-0.0234 0.0117,-0.0351 0.0059,-0.006 0.0059,-0.0176 0.01755,-0.0702 0.08777,-0.0585 l 0.637813,0.10532 q 0.06437,0.0117 0.05266,0.0761 -0.02341,0.0936 -0.05851,0.16385 -0.169693,0.39205 -0.538337,0.6144 -0.368644,0.22236 -0.819208,0.22236 z m 3.668883,-3.10129 q 0.409605,0 0.649516,0.23406 0.239911,0.23406 0.239911,0.64951 0,0.0527 -0.0117,0.1814 l -0.23406,1.91929 q -0.0059,0.0293 -0.02926,0.0527 -0.01756,0.0176 -0.04681,0.0176 h -0.661218 q -0.06437,0 -0.06437,-0.0702 l 0.216505,-1.7496 q 0.0059,-0.0293 0.0059,-0.0936 0,-0.1931 -0.111178,-0.31013 -0.111179,-0.12288 -0.292575,-0.12288 -0.210654,0 -0.356941,0.14629 -0.146287,0.14043 -0.175545,0.38034 l -0.216505,1.7496 q -0.0059,0.0293 -0.02926,0.0527 -0.01756,0.0176 -0.04681,0.0176 H 52.96778 q -0.02926,0 -0.04681,-0.0176 -0.01756,-0.0234 -0.0117,-0.0527 l 0.485673,-3.95561 q 0,-0.0293 0.02341,-0.0468 0.02341,-0.0234 0.05266,-0.0234 h 0.661218 q 0.02926,0 0.04681,0.0234 0.01756,0.0175 0.0117,0.0468 l -0.15799,1.29318 q 0,0.0176 0.0059,0.0234 0.0117,0.006 0.02341,-0.006 0.263317,-0.33939 0.731436,-0.33939 z"
       id="text1"
       aria-label="External switch" /><path
       style="font-style:italic;font-weight:bold;font-size:5.85149px;line-height:1.25;font-family:Barlow;-inkscape-font-specification:'Barlow Bold Italic';letter-spacing:0px;word-spacing:0px;fill:#fcfcfc;stroke-width:0.337586"
       d="m 87.883694,123.67434 q -0.02926,0 -0.04681,-0.0176 -0.01755,-0.0234 -0.0117,-0.0527 l 0.485674,-3.95561 q 0,-0.0293 0.02341,-0.0468 0.02341,-0.0234 0.05266,-0.0234 h 0.661219 q 0.02926,0 0.04681,0.0234 0.01755,0.0176 0.0117,0.0468 l -0.485674,3.95561 q -0.0059,0.0293 -0.02926,0.0527 -0.01755,0.0176 -0.04681,0.0176 z m 2.598059,0.0468 q -0.473971,0 -0.7841,-0.25746 -0.310129,-0.25747 -0.380347,-0.70218 -0.02341,-0.12288 -0.02341,-0.30428 0,-0.14629 0.01756,-0.29258 0.04681,-0.36864 0.15799,-0.62025 0.187248,-0.43301 0.555892,-0.67878 0.368644,-0.24576 0.842614,-0.24576 0.468119,0 0.766545,0.24576 0.298426,0.23992 0.380347,0.67293 0.03511,0.16384 0.03511,0.36279 0,0.12873 -0.01755,0.25161 -0.03511,0.29258 -0.152139,0.591 -0.181396,0.45642 -0.55004,0.71974 -0.368644,0.25746 -0.848466,0.25746 z m 0.08777,-0.70803 q 0.187248,0 0.327684,-0.11703 0.146287,-0.11703 0.234059,-0.32183 0.07022,-0.1931 0.09362,-0.40961 0.01756,-0.14043 0.01756,-0.26331 0,-0.26917 -0.122882,-0.42131 -0.122881,-0.15214 -0.351089,-0.15214 -0.187248,0 -0.333535,0.11118 -0.140436,0.11118 -0.222357,0.31013 -0.06437,0.14043 -0.09362,0.41545 -0.01755,0.14629 -0.01755,0.28673 0,0.25746 0.122881,0.4096 0.122882,0.15214 0.345238,0.15214 z m 3.932207,-2.27623 q 0.0059,-0.0293 0.02341,-0.0468 0.02341,-0.0234 0.05266,-0.0234 h 0.66707 q 0.02926,0 0.04681,0.0234 0.01755,0.0175 0.0117,0.0468 l -0.327683,2.66828 q -0.09948,0.76655 -0.567595,1.09423 -0.468119,0.32768 -1.135189,0.32768 -0.198951,0 -0.444713,-0.0292 -0.05851,-0.0117 -0.04681,-0.0761 l 0.09947,-0.60271 q 0.0059,-0.0761 0.08192,-0.0644 0.204802,0.0351 0.374495,0.0351 0.368644,0 0.579298,-0.16385 0.216505,-0.16384 0.257466,-0.52663 0.0059,-0.0176 -0.0059,-0.0176 -0.0117,-0.006 -0.02341,0.006 -0.251614,0.23991 -0.661218,0.23991 -0.368644,0 -0.655367,-0.1814 -0.286723,-0.18725 -0.368644,-0.59685 -0.02341,-0.12288 -0.02341,-0.29843 0,-0.15214 0.02341,-0.3979 0.06437,-0.46812 0.193099,-0.74314 0.163842,-0.35694 0.473971,-0.57344 0.310129,-0.21651 0.684624,-0.21651 0.444713,0 0.637813,0.26917 0.0117,0.0117 0.02341,0.0117 0.0117,-0.006 0.0117,-0.0234 z m -0.27502,1.89003 q 0.06437,-0.16969 0.105327,-0.47982 0.02341,-0.16969 0.02341,-0.28672 0,-0.10533 -0.01756,-0.1814 -0.02926,-0.15799 -0.140436,-0.25161 -0.105326,-0.0995 -0.280871,-0.0995 -0.169693,0 -0.304278,0.0995 -0.128732,0.0936 -0.204802,0.25161 -0.09948,0.16969 -0.140435,0.47397 -0.01756,0.14629 -0.01756,0.25747 0,0.12288 0.02926,0.21065 0.02926,0.15799 0.146287,0.25747 0.11703,0.0936 0.292574,0.0936 0.181396,0 0.310129,-0.0936 0.134585,-0.0995 0.198951,-0.25162 z m 1.726187,1.07083 q -0.175545,0 -0.286723,-0.11118 -0.111179,-0.11703 -0.111179,-0.29258 0,-0.22235 0.146288,-0.36864 0.152138,-0.15214 0.368643,-0.15214 0.181397,0 0.286723,0.11118 0.111179,0.10532 0.111179,0.28672 0,0.22236 -0.152139,0.3745 -0.152139,0.15214 -0.362792,0.15214 z m 3.124691,-3.03693 q 0.02926,0 0.04681,0.0234 0.02341,0.0175 0.01755,0.0468 l -0.07022,0.55589 q -0.0059,0.0293 -0.02926,0.0527 -0.01756,0.0176 -0.04681,0.0176 h -0.55004 q -0.02341,0 -0.03511,0.0293 l -0.269169,2.21771 q -0.0059,0.0293 -0.02926,0.0527 -0.01756,0.0176 -0.04681,0.0176 h -0.66707 q -0.02926,0 -0.04681,-0.0176 -0.01755,-0.0234 -0.0117,-0.0527 l 0.27502,-2.21771 q 0,-0.0293 -0.02926,-0.0293 h -0.333535 q -0.02926,0 -0.04681,-0.0176 -0.01756,-0.0234 -0.0117,-0.0527 l 0.07022,-0.55589 q 0,-0.0293 0.02341,-0.0468 0.02341,-0.0234 0.05266,-0.0234 h 0.333535 q 0.02926,0 0.02926,-0.0293 l 0.01755,-0.12873 q 0.04681,-0.36279 0.175545,-0.56174 0.134584,-0.2048 0.386198,-0.28672 0.251614,-0.0878 0.678773,-0.0761 h 0.210654 q 0.06437,0 0.06437,0.0702 l -0.05851,0.47397 q -0.0059,0.0293 -0.02926,0.0527 -0.01756,0.0175 -0.04681,0.0175 h -0.187248 q -0.204802,0.006 -0.292575,0.0878 -0.08192,0.0761 -0.105326,0.28672 l -0.0117,0.0644 q 0,0.0293 0.02341,0.0293 z m 0.234059,3.01352 q -0.02926,0 -0.04681,-0.0176 -0.01755,-0.0234 -0.0117,-0.0527 l 0.485674,-3.95561 q 0,-0.0293 0.02341,-0.0468 0.02341,-0.0234 0.05266,-0.0234 h 0.661223 q 0.0293,0 0.0468,0.0234 0.0175,0.0176 0.0117,0.0468 l -0.48567,3.95561 q -0.006,0.0293 -0.0293,0.0527 -0.0175,0.0176 -0.04681,0.0176 z m 2.598061,0.0468 q -0.47397,0 -0.7841,-0.25746 -0.31013,-0.25747 -0.38035,-0.70218 -0.0234,-0.12288 -0.0234,-0.30428 0,-0.14629 0.0175,-0.29258 0.0468,-0.36864 0.15799,-0.62025 0.18725,-0.43301 0.55589,-0.67878 0.36865,-0.24576 0.84262,-0.24576 0.46812,0 0.76654,0.24576 0.29843,0.23992 0.38035,0.67293 0.0351,0.16384 0.0351,0.36279 0,0.12873 -0.0176,0.25161 -0.0351,0.29258 -0.15214,0.591 -0.18139,0.45642 -0.55004,0.71974 -0.36864,0.25746 -0.84846,0.25746 z m 0.0878,-0.70803 q 0.18725,0 0.32768,-0.11703 0.14629,-0.11703 0.23406,-0.32183 0.0702,-0.1931 0.0936,-0.40961 0.0175,-0.14043 0.0175,-0.26331 0,-0.26917 -0.12288,-0.42131 -0.12288,-0.15214 -0.35109,-0.15214 -0.18725,0 -0.33353,0.11118 -0.14044,0.11118 -0.22236,0.31013 -0.0644,0.14043 -0.0936,0.41545 -0.0176,0.14629 -0.0176,0.28673 0,0.25746 0.12288,0.4096 0.12288,0.15214 0.34524,0.15214 z m 2.35231,0.66122 q -0.0585,0 -0.0702,-0.0585 l -0.46812,-2.87308 v -0.0117 q 0,-0.0293 0.0175,-0.0468 0.0234,-0.0234 0.0527,-0.0234 h 0.68462 q 0.0702,0 0.0761,0.0585 l 0.18725,1.76715 q 0.006,0.0175 0.0175,0.0175 0.0117,0 0.0176,-0.0175 l 0.64366,-1.76715 q 0.0234,-0.0585 0.0878,-0.0585 h 0.59685 q 0.0644,0 0.0702,0.0585 l 0.22821,1.773 q 0.006,0.0175 0.0176,0.0175 0.0117,0 0.0175,-0.0175 l 0.66122,-1.773 q 0.0234,-0.0585 0.0878,-0.0585 l 0.67877,0.0117 q 0.0351,0 0.0468,0.0234 0.0117,0.0176 0,0.0527 l -1.18201,2.86723 q -0.0175,0.0585 -0.0761,0.0585 h -0.69047 q -0.0585,0 -0.0702,-0.0585 l -0.24576,-1.56819 q 0,-0.0176 -0.0117,-0.0176 -0.0117,0 -0.0234,0.0176 l -0.5793,1.56819 q -0.0175,0.0585 -0.0819,0.0585 z m 5.69935,-3.34705 q -0.17555,0 -0.28672,-0.11118 -0.11118,-0.11118 -0.11118,-0.28672 0,-0.22821 0.14628,-0.3745 0.15214,-0.15214 0.3628,-0.15214 0.18139,0 0.28672,0.10533 0.11118,0.10533 0.11118,0.28672 0,0.22236 -0.15214,0.38035 -0.14629,0.15214 -0.35694,0.15214 z m -0.74899,3.34705 q -0.0644,0 -0.0644,-0.0702 l 0.35694,-2.87308 q 0.006,-0.0293 0.0234,-0.0468 0.0234,-0.0234 0.0527,-0.0234 h 0.66122 q 0.0293,0 0.0468,0.0234 0.0176,0.0175 0.0117,0.0468 l -0.35108,2.87308 q -0.006,0.0293 -0.0293,0.0527 -0.0176,0.0176 -0.0468,0.0176 z m 3.24757,-3.05448 q 0.40961,0 0.64952,0.23406 0.23991,0.23406 0.23991,0.64952 0,0.0527 -0.0117,0.18139 l -0.23406,1.91929 q -0.006,0.0293 -0.0293,0.0527 -0.0175,0.0176 -0.0468,0.0176 h -0.66122 q -0.0644,0 -0.0644,-0.0702 l 0.21651,-1.74959 q 0.006,-0.0293 0.006,-0.0936 0,-0.1931 -0.11118,-0.31013 -0.11118,-0.12288 -0.29257,-0.12288 -0.21066,0 -0.35694,0.14629 -0.14629,0.14043 -0.17555,0.38035 l -0.2165,1.74959 q -0.006,0.0293 -0.0293,0.0527 -0.0175,0.0176 -0.0468,0.0176 h -0.66122 q -0.0293,0 -0.0468,-0.0176 -0.0176,-0.0234 -0.0117,-0.0527 l 0.35109,-2.86723 q 0.006,-0.0293 0.0234,-0.0468 0.0234,-0.0234 0.0527,-0.0234 h 0.66122 q 0.0293,0 0.0468,0.0234 0.0176,0.0175 0.0117,0.0468 l -0.0234,0.2048 q 0,0.0176 0.006,0.0234 0.0117,0.006 0.0234,-0.006 0.26332,-0.33939 0.73143,-0.33939 z m 4.0785,0.85432 q 0.041,0.16384 0.041,0.36864 0,0.11118 -0.0234,0.33354 -0.0468,0.4096 -0.19895,0.73143 -0.17554,0.3745 -0.48567,0.59686 -0.30428,0.2165 -0.71974,0.2165 -0.4096,0 -0.59685,-0.29257 -0.0117,-0.0176 -0.0234,-0.0117 -0.0117,0.006 -0.0117,0.0234 l -0.15799,1.25222 q -0.006,0.0293 -0.0293,0.0468 -0.0176,0.0234 -0.0468,0.0234 h -0.66122 q -0.0293,0 -0.0468,-0.0234 -0.0175,-0.0175 -0.0117,-0.0468 l 0.48567,-3.95561 q 0,-0.0293 0.0234,-0.0468 0.0234,-0.0234 0.0527,-0.0234 h 0.66122 q 0.0293,0 0.0468,0.0234 0.0176,0.0175 0.0117,0.0468 l -0.0234,0.1931 q 0,0.0175 0.0117,0.0234 0.0117,0 0.0234,-0.0117 0.27502,-0.32183 0.69633,-0.32183 0.39205,0 0.64951,0.22821 0.25747,0.22236 0.33354,0.62611 z m -1.02401,1.31073 q 0.16384,-0.22821 0.2165,-0.62026 0.0117,-0.0761 0.0117,-0.2165 0,-0.22821 -0.0585,-0.36864 -0.0995,-0.25162 -0.39205,-0.25162 -0.25747,0 -0.42131,0.25162 -0.14628,0.21065 -0.1931,0.591 -0.0175,0.12873 -0.0175,0.23991 0,0.2165 0.0702,0.36864 0.0995,0.23406 0.35694,0.23406 0.25161,0 0.42716,-0.22821 z m 3.44068,-2.04802 q 0.006,-0.0293 0.0234,-0.0468 0.0234,-0.0234 0.0527,-0.0234 h 0.66121 q 0.0293,0 0.0468,0.0234 0.0175,0.0175 0.0117,0.0468 l -0.35109,2.86723 q -0.006,0.0293 -0.0293,0.0527 -0.0175,0.0176 -0.0468,0.0176 h -0.66122 q -0.0293,0 -0.0468,-0.0176 -0.0176,-0.0234 -0.0117,-0.0527 l 0.0234,-0.19895 q 0,-0.0175 -0.0117,-0.0175 -0.0117,-0.006 -0.0234,0.0117 -0.26917,0.31598 -0.74314,0.31598 -0.39205,0 -0.63196,-0.22236 -0.23991,-0.22235 -0.23991,-0.63196 0,-0.0527 0.0117,-0.16969 l 0.23991,-1.9544 q 0.006,-0.0293 0.0234,-0.0468 0.0234,-0.0234 0.0527,-0.0234 h 0.65536 q 0.0644,0 0.0644,0.0702 l -0.21651,1.7496 q -0.006,0.0351 -0.006,0.0995 0,0.19895 0.10533,0.31598 0.10533,0.11118 0.29257,0.11118 0.1931,0 0.33354,-0.11703 0.14629,-0.12288 0.1931,-0.31598 z m 2.99596,0.52078 q -0.006,0.0293 -0.0293,0.0527 -0.0176,0.0175 -0.0468,0.0175 h -0.54419 q -0.0234,0 -0.0351,0.0293 l -0.15214,1.24052 q -0.006,0.0351 -0.006,0.0936 0,0.28672 0.28087,0.28672 h 0.18725 q 0.0293,0 0.0468,0.0234 0.0234,0.0175 0.0175,0.0468 l -0.0702,0.55589 q -0.0117,0.0702 -0.0761,0.0761 -0.23406,0.0117 -0.34524,0.0117 -0.43301,0 -0.64952,-0.12873 -0.21065,-0.13458 -0.21065,-0.48567 0,-0.0468 0.0117,-0.15214 l 0.1931,-1.5682 q 0.0117,-0.0293 -0.0234,-0.0293 h -0.32184 q -0.0292,0 -0.0468,-0.0175 -0.0175,-0.0234 -0.0117,-0.0527 l 0.0644,-0.52078 q 0,-0.0293 0.0234,-0.0468 0.0234,-0.0234 0.0527,-0.0234 h 0.32183 q 0.0293,0 0.0293,-0.0292 l 0.0878,-0.69633 q 0.006,-0.0293 0.0234,-0.0468 0.0234,-0.0234 0.0527,-0.0234 h 0.63781 q 0.0293,0 0.0468,0.0234 0.0176,0.0175 0.0117,0.0468 l -0.0878,0.69633 q 0,0.0292 0.0293,0.0292 h 0.54419 q 0.0293,0 0.0468,0.0234 0.0175,0.0175 0.0117,0.0468 z"
       id="text1-7"
       aria-label="log.flow input" /><path
       style="font-weight:800;font-size:5.85149px;line-height:1.25;font-family:Barlow;-inkscape-font-specification:'Barlow Ultra-Bold';letter-spacing:0px;word-spacing:0px;fill:#efefef;stroke-width:0.337586"
       d="m 70.402932,130.56585 q 0.02926,0 0.04681,0.0234 0.02341,0.0175 0.02341,0.0468 v 0.69048 q 0,0.0292 -0.02341,0.0527 -0.01755,0.0175 -0.04681,0.0175 h -0.743139 q -0.02926,0 -0.02926,0.0293 v 0.73729 q 0,0.0293 -0.02341,0.0527 -0.01756,0.0176 -0.04681,0.0176 h -0.684624 q -0.02926,0 -0.05266,-0.0176 -0.01755,-0.0234 -0.01755,-0.0527 v -0.73729 q 0,-0.0293 -0.02926,-0.0293 h -0.748991 q -0.02926,0 -0.05266,-0.0175 -0.01755,-0.0234 -0.01755,-0.0527 v -0.69048 q 0,-0.0293 0.01755,-0.0468 0.02341,-0.0234 0.05266,-0.0234 h 0.748991 q 0.02926,0 0.02926,-0.0293 v -0.74899 q 0,-0.0292 0.01755,-0.0468 0.02341,-0.0234 0.05266,-0.0234 h 0.684624 q 0.02926,0 0.04681,0.0234 0.02341,0.0176 0.02341,0.0468 v 0.74899 q 0,0.0293 0.02926,0.0293 z m 1.761304,1.28148 q -0.0117,0.0117 -0.0059,0.0234 0.0059,0.0117 0.02341,0.0117 h 1.49213 q 0.02926,0 0.04681,0.0234 0.02341,0.0176 0.02341,0.0468 v 0.69048 q 0,0.0293 -0.02341,0.0527 -0.01755,0.0176 -0.04681,0.0176 h -2.744349 q -0.02926,0 -0.05266,-0.0176 -0.01755,-0.0234 -0.01755,-0.0527 v -0.64951 q 0,-0.0527 0.03511,-0.0878 0.351089,-0.32768 0.930387,-0.94209 l 0.351089,-0.36864 q 0.532486,-0.55004 0.532486,-0.80166 0,-0.16969 -0.128733,-0.28087 -0.122881,-0.11117 -0.321832,-0.11117 -0.198951,0 -0.321832,0.11117 -0.122881,0.11118 -0.122881,0.29258 v 0.14043 q 0,0.0293 -0.02341,0.0527 -0.01756,0.0175 -0.04681,0.0175 h -0.842615 q -0.02926,0 -0.05266,-0.0175 -0.01756,-0.0234 -0.01756,-0.0527 v -0.29257 q 0.02341,-0.32768 0.216505,-0.57345 0.1931,-0.24576 0.50908,-0.37449 0.315981,-0.13459 0.702179,-0.13459 0.43301,0 0.754842,0.16385 0.327684,0.15799 0.497377,0.43301 0.175544,0.27502 0.175544,0.60855 0,0.23991 -0.117029,0.48567 -0.11703,0.24577 -0.35109,0.52079 -0.163841,0.19895 -0.368644,0.40375 -0.204802,0.2048 -0.567594,0.55004 z m 5.120058,-1.01816 q 0.02926,0 0.04681,0.0234 0.02341,0.0176 0.02341,0.0468 v 0.71973 q 0,0.0293 -0.02341,0.0527 -0.01755,0.0176 -0.04681,0.0176 H 77.03268 q -0.02926,0 -0.02926,0.0293 v 0.92453 q 0,0.0293 -0.02341,0.0527 -0.01756,0.0176 -0.04681,0.0176 h -0.830912 q -0.02926,0 -0.05266,-0.0176 -0.01755,-0.0234 -0.01755,-0.0527 v -0.92453 q 0,-0.0293 -0.02926,-0.0293 h -1.825665 q -0.02926,0 -0.05266,-0.0176 -0.01756,-0.0234 -0.01756,-0.0527 v -0.56759 q 0,-0.0351 0.01756,-0.0878 l 1.006456,-2.29378 q 0.02341,-0.0527 0.08192,-0.0527 h 0.889426 q 0.04096,0 0.05266,0.0234 0.01755,0.0176 0,0.0585 l -0.918684,2.09483 q -0.0059,0.0117 0,0.0234 0.0059,0.0117 0.01755,0.0117 h 0.748991 q 0.02926,0 0.02926,-0.0293 v -0.65537 q 0,-0.0293 0.01755,-0.0468 0.02341,-0.0234 0.05266,-0.0234 h 0.830912 q 0.02926,0 0.04681,0.0234 0.02341,0.0176 0.02341,0.0468 v 0.65537 q 0,0.0293 0.02926,0.0293 z m 1.720342,1.88418 q -0.05851,0 -0.07607,-0.0585 l -1.182001,-3.9556 -0.0059,-0.0234 q 0,-0.0585 0.06437,-0.0585 h 0.895278 q 0.06437,0 0.08192,0.0585 l 0.672921,2.66243 q 0.0059,0.0175 0.01756,0.0175 0.0117,0 0.01755,-0.0175 l 0.661219,-2.66243 q 0.01755,-0.0585 0.08192,-0.0585 h 0.877724 q 0.03511,0 0.05266,0.0234 0.01756,0.0234 0.0059,0.0585 l -1.199556,3.9556 q -0.01755,0.0585 -0.07607,0.0585 z"
       id="text1-7-6"
       aria-label="+24V" /><path
       style="font-weight:800;font-size:5.85149px;line-height:1.25;font-family:Barlow;-inkscape-font-specification:'Barlow Ultra-Bold';letter-spacing:0px;word-spacing:0px;fill:#efefef;stroke-width:0.337586"
       d="m 67.692489,160.49089 q -0.02926,0 -0.05266,-0.0175 -0.01756,-0.0234 -0.01756,-0.0527 v -3.9556 q 0,-0.0293 0.01756,-0.0468 0.02341,-0.0234 0.05266,-0.0234 h 0.830912 q 0.02926,0 0.04681,0.0234 0.02341,0.0176 0.02341,0.0468 v 3.9556 q 0,0.0293 -0.02341,0.0527 -0.01756,0.0175 -0.04681,0.0175 z m 3.142247,-3.07203 q 0.456416,0 0.748991,0.29257 0.292574,0.28673 0.292574,0.7841 v 1.92514 q 0,0.0293 -0.02341,0.0527 -0.01755,0.0175 -0.04681,0.0175 h -0.830911 q -0.02926,0 -0.05266,-0.0175 -0.01755,-0.0234 -0.01755,-0.0527 v -1.71448 q 0,-0.19895 -0.111179,-0.32769 -0.111178,-0.12873 -0.286723,-0.12873 -0.181396,0 -0.292574,0.12873 -0.111178,0.12288 -0.111178,0.32769 v 1.71448 q 0,0.0293 -0.02341,0.0527 -0.01756,0.0175 -0.04681,0.0175 H 69.20217 q -0.02926,0 -0.05266,-0.0175 -0.01756,-0.0234 -0.01756,-0.0527 v -2.88478 q 0,-0.0293 0.01756,-0.0468 0.02341,-0.0234 0.05266,-0.0234 h 0.830912 q 0.02926,0 0.04681,0.0234 0.02341,0.0175 0.02341,0.0468 v 0.2165 q 0,0.0234 0.0059,0.0293 0.0117,0 0.02341,-0.0175 0.222357,-0.34524 0.702179,-0.34524 z m 4.359355,0.88942 q 0.09362,0.31599 0.09362,0.67878 0,0.41545 -0.122881,0.73729 -0.134584,0.36279 -0.43301,0.591 -0.292575,0.22235 -0.713882,0.22235 -0.421307,0 -0.637813,-0.27502 -0.0117,-0.0175 -0.02341,-0.0117 -0.0117,0.006 -0.0117,0.0234 v 1.21711 q 0,0.0292 -0.02341,0.0468 -0.01755,0.0234 -0.04681,0.0234 h -0.830912 q -0.02926,0 -0.05266,-0.0234 -0.01756,-0.0176 -0.01756,-0.0468 v -3.95561 q 0,-0.0293 0.01756,-0.0468 0.02341,-0.0234 0.05266,-0.0234 h 0.830912 q 0.02926,0 0.04681,0.0234 0.02341,0.0175 0.02341,0.0468 v 0.1931 q 0,0.0175 0.0117,0.0234 0.0117,0 0.02341,-0.0117 0.23406,-0.32183 0.672922,-0.32183 0.397901,0 0.702179,0.23991 0.304277,0.23406 0.438861,0.64951 z m -1.035713,1.18786 q 0.117029,-0.19895 0.117029,-0.52664 0,-0.31598 -0.105326,-0.49737 -0.122882,-0.22236 -0.368644,-0.22236 -0.23406,0 -0.356941,0.22236 -0.09948,0.19895 -0.09948,0.50322 0,0.32769 0.111179,0.52664 0.122881,0.2048 0.345238,0.2048 0.239911,0 0.356941,-0.21065 z m 3.300237,-1.96025 q 0,-0.0293 0.01755,-0.0468 0.02341,-0.0234 0.05266,-0.0234 h 0.830911 q 0.02926,0 0.04681,0.0234 0.02341,0.0175 0.02341,0.0468 v 2.88478 q 0,0.0293 -0.02341,0.0527 -0.01755,0.0175 -0.04681,0.0175 h -0.830911 q -0.02926,0 -0.05266,-0.0175 -0.01755,-0.0234 -0.01755,-0.0527 v -0.2048 q 0,-0.0175 -0.0117,-0.0234 -0.0117,-0.006 -0.02341,0.0117 -0.23406,0.33353 -0.737288,0.33353 -0.444713,0 -0.719733,-0.28087 -0.27502,-0.28087 -0.27502,-0.7841 v -1.93684 q 0,-0.0293 0.01755,-0.0468 0.02341,-0.0234 0.05266,-0.0234 h 0.830911 q 0.02926,0 0.04681,0.0234 0.02341,0.0175 0.02341,0.0468 v 1.71448 q 0,0.20481 0.105327,0.32769 0.105327,0.12288 0.286723,0.12288 0.163842,0 0.269169,-0.0995 0.111178,-0.0995 0.134584,-0.26331 z m 3.329496,0.63781 q 0,0.0293 -0.02341,0.0527 -0.01755,0.0176 -0.04681,0.0176 h -0.532485 q -0.02926,0 -0.02926,0.0293 v 1.06497 q 0,0.33353 0.269169,0.33353 h 0.216505 q 0.02926,0 0.04681,0.0234 0.02341,0.0175 0.02341,0.0468 v 0.67877 q 0,0.0644 -0.07022,0.0761 -0.280872,0.0117 -0.409605,0.0117 -0.509079,0 -0.754842,-0.15799 -0.245762,-0.16384 -0.251614,-0.6144 v -1.46287 q 0,-0.0293 -0.02926,-0.0293 h -0.333535 q -0.02926,0 -0.05266,-0.0176 -0.01755,-0.0234 -0.01755,-0.0527 v -0.63781 q 0,-0.0293 0.01755,-0.0468 0.02341,-0.0234 0.05266,-0.0234 h 0.333535 q 0.02926,0 0.02926,-0.0293 v -0.70803 q 0,-0.0293 0.01756,-0.0468 0.02341,-0.0234 0.05266,-0.0234 h 0.789951 q 0.02926,0 0.04681,0.0234 0.02341,0.0175 0.02341,0.0468 v 0.70803 q 0,0.0293 0.02926,0.0293 h 0.532485 q 0.02926,0 0.04681,0.0234 0.02341,0.0175 0.02341,0.0468 z"
       id="text1-7-6-3"
       aria-label="Input" /><path
       style="font-weight:800;font-size:4.21497px;line-height:1.25;font-family:Barlow;-inkscape-font-specification:'Barlow Ultra-Bold';letter-spacing:0px;word-spacing:0px;fill:#f1f1f1;stroke-width:0.243171"
       d="m 103.44658,193.52757 q -0.3372,0 -0.59431,-0.13488 -0.2529,-0.13488 -0.39621,-0.37935 -0.13909,-0.24446 -0.13909,-0.5648 v -0.86407 q 0,-0.32034 0.13909,-0.56059 0.14331,-0.24447 0.39621,-0.37935 0.25711,-0.13488 0.59431,-0.13488 0.33298,0 0.5901,0.13067 0.25711,0.12645 0.3962,0.34984 0.14331,0.22339 0.14331,0.49315 v 0.0211 q 0,0.0211 -0.0169,0.0379 -0.0126,0.0126 -0.0337,0.0126 h -0.59852 q -0.0211,0 -0.0379,-0.0126 -0.0126,-0.0169 -0.0126,-0.0379 0,-0.16438 -0.11802,-0.27818 -0.11381,-0.11802 -0.31191,-0.11802 -0.19389,0 -0.31191,0.12645 -0.11802,0.12645 -0.11802,0.32876 v 0.90622 q 0,0.20232 0.13067,0.32877 0.13066,0.12645 0.32876,0.12645 0.18546,0 0.29927,-0.0969 0.1138,-0.10116 0.1138,-0.27819 v -0.11802 q 0,-0.0211 -0.0211,-0.0211 h -0.4215 q -0.0211,0 -0.0379,-0.0126 -0.0126,-0.0169 -0.0126,-0.0379 v -0.46364 q 0,-0.0211 0.0126,-0.0337 0.0169,-0.0169 0.0379,-0.0169 h 1.07903 q 0.0211,0 0.0337,0.0169 0.0169,0.0126 0.0169,0.0337 v 0.57323 q 0,0.31613 -0.14331,0.55638 -0.13909,0.24025 -0.3962,0.37092 -0.2529,0.13066 -0.5901,0.13066 z m 3.16966,-2.93362 q 0,-0.0211 0.0126,-0.0337 0.0169,-0.0169 0.0379,-0.0169 h 0.59852 q 0.0211,0 0.0337,0.0169 0.0169,0.0127 0.0169,0.0337 v 2.84932 q 0,0.0211 -0.0169,0.0379 -0.0126,0.0126 -0.0337,0.0126 h -0.57323 q -0.0422,0 -0.059,-0.0337 l -0.96945,-1.61012 q -0.008,-0.0126 -0.0169,-0.008 -0.008,0 -0.008,0.0169 l 0.004,1.58483 q 0,0.0211 -0.0169,0.0379 -0.0127,0.0126 -0.0337,0.0126 h -0.59853 q -0.0211,0 -0.0379,-0.0126 -0.0126,-0.0169 -0.0126,-0.0379 v -2.84932 q 0,-0.0211 0.0126,-0.0337 0.0169,-0.0169 0.0379,-0.0169 h 0.57745 q 0.0421,0 0.059,0.0337 l 0.96523,1.60591 q 0.008,0.0126 0.0169,0.0126 0.008,-0.004 0.008,-0.0211 z m 1.1549,2.8999 q -0.0211,0 -0.0379,-0.0126 -0.0126,-0.0169 -0.0126,-0.0379 v -2.84932 q 0,-0.0211 0.0126,-0.0337 0.0169,-0.0169 0.0379,-0.0169 h 1.07482 q 0.32876,0 0.58166,0.11381 0.2529,0.1138 0.39199,0.32455 0.1391,0.21075 0.1391,0.48472 v 1.10432 q 0,0.27398 -0.1391,0.48472 -0.13909,0.21075 -0.39199,0.32456 -0.2529,0.1138 -0.58166,0.1138 z m 0.6491,-0.6196 q 0,0.0211 0.0211,0.0211 h 0.43414 q 0.1686,0 0.27397,-0.11801 0.10538,-0.12224 0.10959,-0.32456 v -0.86828 q 0,-0.20232 -0.10959,-0.32034 -0.10537,-0.12223 -0.27818,-0.12223 h -0.42993 q -0.0211,0 -0.0211,0.0211 z"
       id="text1-7-6-3-3"
       aria-label="GND" /><path
       style="fill:none;stroke:#f1f1f1;stroke-width:1.265;stroke-linecap:round;stroke-linejoin:round;stroke-dasharray:none;stroke-opacity:1"
       d="M 98.270907,134.20463 H 50.229089 v 8.04603 l -4.530772,12.1081"
       id="path1" /><path
       style="fill:none;stroke:#f1f1f1;stroke-width:1.265;stroke-linecap:round;stroke-linejoin:round;stroke-dasharray:none;stroke-opacity:1"
       d="m 49.916622,154.28064 v 8.43661 h 65.461858 v 29.45003 h -3.90583 7.88979"
       id="path2" /><circle
       style="fill:#141414;fill-opacity:1;stroke:#d9d9d9;stroke-width:1.265;stroke-linecap:round;stroke-linejoin:round;stroke-miterlimit:3.7;stroke-dasharray:none;stroke-opacity:1"
       id="path3"
       cx="115.37849"
       cy="175.60652"
       r="6.7180433" /><rect
       style="fill:#161616;fill-opacity:1;stroke:#f1f1f1;stroke-width:1.06749;stroke-linecap:round;stroke-linejoin:round;stroke-miterlimit:3.7;stroke-dasharray:none;stroke-opacity:1"
       id="rect3-4"
       width="5.500257"
       height="14.123541"
       x="-165.49263"
       y="85.892448"
       ry="0.66428715"
       transform="rotate(-90)" /><path
       style="fill:none;stroke:#f1f1f1;stroke-width:1.265;stroke-linecap:round;stroke-linejoin:round;stroke-dasharray:none;stroke-opacity:1"
       d="m 103.01683,162.78316 v 24.19376 h 12.21013"
       id="path4" /><rect
       style="fill:#161616;fill-opacity:1;stroke:#fafafa;stroke-width:1.06749;stroke-linecap:round;stroke-linejoin:round;stroke-miterlimit:3.7;stroke-dasharray:none;stroke-opacity:1"
       id="rect3-4-3"
       width="5.500257"
       height="14.123541"
       x="-105.76195"
       y="-183.17552"
       ry="0.66428715"
       transform="scale(-1)" /><path
       style="fill:none;stroke:#f1f1f1;stroke-width:0.565;stroke-linecap:round;stroke-linejoin:round;stroke-dasharray:1.695, 1.695;stroke-dashoffset:0;stroke-opacity:1"
       d="M 47.890398,148.09014 H 38.997255"
       id="path5" /><path
       style="fill:none;stroke:#f1f1f1;stroke-width:0.865;stroke-linecap:round;stroke-linejoin:round;stroke-dasharray:none;stroke-opacity:1"
       d="m 39.254484,146.03575 v 4.198"
       id="path6" /><path
       style="fill:none;stroke:#f1f1f1;stroke-width:1.165;stroke-linecap:round;stroke-linejoin:round;stroke-dasharray:none;stroke-opacity:1"
       d="m 64.843844,131.47054 -3.007494,2.77315 3.007495,2.8122"
       id="path7" /><path
       style="fill:none;stroke:#f1f1f1;stroke-width:1.165;stroke-linecap:round;stroke-linejoin:round;stroke-dasharray:none;stroke-opacity:1"
       d="m 61.931029,165.44253 3.007494,-2.77315 -3.007495,-2.8122"
       id="path7-2" /><g
       id="g8"
       transform="matrix(0.58025537,0,0,0.58025537,37.209582,74.370784)"
       style="fill:none;fill-opacity:1;stroke:#e5e5e5;stroke-width:1.48249;stroke-dasharray:none;stroke-opacity:1"><path
         style="fill:none;fill-opacity:1;stroke:#e5e5e5;stroke-width:1.48249;stroke-linecap:round;stroke-linejoin:round;stroke-dasharray:none;stroke-opacity:1"
         d="m 137.64071,175.89044 -2.77315,-3.0075 -2.8122,3.0075"
         id="path7-2-9" /><path
         style="fill:none;fill-opacity:1;stroke:#e5e5e5;stroke-width:1.48249;stroke-linecap:round;stroke-linejoin:round;stroke-dasharray:none;stroke-opacity:1"
         d="m 129.04892,180.4107 h 5.78064 v -11.87375 h 5.78064"
         id="path8" /></g><g
       id="text1-7-6-3-6"
       style="font-weight:300;font-size:4.41523px;line-height:1.25;font-family:Barlow;-inkscape-font-specification:'Barlow Light';letter-spacing:0px;word-spacing:0px;fill:#f1f1f1;stroke-width:0.254725"
       aria-label="Edge&#10;detection"><path
         style="font-weight:800;-inkscape-font-specification:'Barlow Ultra-Bold';text-align:end;text-anchor:end"
         d="m 117.35645,152.54249 q 0,0.0221 -0.0177,0.0397 -0.0132,0.0132 -0.0353,0.0132 h -1.38639 q -0.0221,0 -0.0221,0.0221 v 0.54307 q 0,0.0221 0.0221,0.0221 h 0.88747 q 0.0221,0 0.0353,0.0177 0.0177,0.0132 0.0177,0.0353 v 0.51659 q 0,0.0221 -0.0177,0.0397 -0.0132,0.0132 -0.0353,0.0132 h -0.88747 q -0.0221,0 -0.0221,0.0221 v 0.58281 q 0,0.0221 0.0221,0.0221 h 1.38639 q 0.0221,0 0.0353,0.0177 0.0177,0.0132 0.0177,0.0353 v 0.521 q 0,0.0221 -0.0177,0.0397 -0.0132,0.0132 -0.0353,0.0132 h -2.08841 q -0.0221,0 -0.0397,-0.0132 -0.0132,-0.0177 -0.0132,-0.0397 v -2.98469 q 0,-0.0221 0.0132,-0.0353 0.0177,-0.0177 0.0397,-0.0177 h 2.08841 q 0.0221,0 0.0353,0.0177 0.0177,0.0132 0.0177,0.0353 z m 1.73518,-0.52099 q 0,-0.0221 0.0132,-0.0353 0.0177,-0.0177 0.0397,-0.0177 h 0.62696 q 0.0221,0 0.0353,0.0177 0.0177,0.0132 0.0177,0.0353 v 2.98469 q 0,0.0221 -0.0177,0.0397 -0.0132,0.0132 -0.0353,0.0132 h -0.62696 q -0.0221,0 -0.0397,-0.0132 -0.0132,-0.0177 -0.0132,-0.0397 v -0.1457 q 0,-0.0132 -0.009,-0.0132 -0.009,-0.004 -0.0177,0.004 -0.17661,0.24284 -0.50775,0.24284 -0.30023,0 -0.53424,-0.18103 -0.22959,-0.18102 -0.32673,-0.4945 -0.0706,-0.23843 -0.0706,-0.51217 0,-0.30907 0.0927,-0.55632 0.10155,-0.27374 0.32231,-0.44152 0.22518,-0.16778 0.54307,-0.16778 0.3179,0 0.48126,0.20751 0.009,0.0132 0.0177,0.009 0.009,-0.004 0.009,-0.0177 z m -0.0751,2.27384 q 0.0751,-0.14129 0.0751,-0.3753 0,-0.25608 -0.0839,-0.39737 -0.0927,-0.15453 -0.26049,-0.15453 -0.18103,0 -0.26933,0.15895 -0.0883,0.15012 -0.0883,0.39295 0,0.23401 0.0795,0.37971 0.0927,0.16778 0.27816,0.16778 0.17661,0 0.26932,-0.17219 z m 2.5785,-1.46586 q 0,-0.0221 0.0132,-0.0353 0.0177,-0.0177 0.0397,-0.0177 h 0.62696 q 0.0221,0 0.0353,0.0177 0.0177,0.0132 0.0177,0.0353 v 1.97361 q 0,0.60489 -0.34881,0.86539 -0.3488,0.26049 -0.88304,0.26049 -0.19869,0 -0.41945,-0.0353 -0.0442,-0.004 -0.0442,-0.0574 l 0.0221,-0.54748 q 0,-0.0309 0.0177,-0.0442 0.0177,-0.009 0.0442,0 0.18102,0.0397 0.33556,0.0397 0.25166,0 0.39737,-0.1148 0.1457,-0.11479 0.1457,-0.36204 l -0.0309,0.0309 q -0.15895,0.15895 -0.45918,0.15895 -0.29141,0 -0.53424,-0.12804 -0.24284,-0.12804 -0.34881,-0.45035 -0.0706,-0.21194 -0.0706,-0.521 0,-0.33997 0.0839,-0.55632 0.10155,-0.27375 0.32231,-0.43711 0.22518,-0.16336 0.521,-0.16336 0.31789,0 0.49009,0.19427 0.009,0.009 0.0177,0.009 0.009,-0.004 0.009,-0.0177 z m -0.0397,1.39522 q 0.0397,-0.10156 0.0397,-0.33115 0,-0.11921 -0.009,-0.18544 -0.009,-0.0706 -0.0353,-0.13245 -0.0353,-0.0971 -0.1148,-0.15012 -0.0751,-0.0574 -0.18544,-0.0574 -0.20751,0 -0.29582,0.20752 -0.0662,0.12362 -0.0662,0.32672 0,0.21635 0.0574,0.3179 0.0397,0.0927 0.11921,0.15012 0.0795,0.0574 0.18986,0.0574 0.22517,0 0.30023,-0.2031 z m 3.25402,-0.50776 q 0.0221,0.13246 0.0132,0.34881 -0.004,0.053 -0.0574,0.053 h -1.34664 q -0.009,0 -0.0177,0.009 -0.009,0.004 -0.004,0.0132 0.009,0.0486 0.0442,0.12804 0.053,0.0927 0.15895,0.15012 0.10597,0.0574 0.2605,0.0574 0.27816,0 0.43711,-0.18102 0.0177,-0.0221 0.0397,-0.0221 0.0221,0 0.0353,0.0177 l 0.33997,0.38854 q 0.0177,0.0132 0.0177,0.0353 0,0.0177 -0.0177,0.0353 -0.15453,0.16778 -0.38413,0.25608 -0.22517,0.0883 -0.4945,0.0883 -0.40179,0 -0.68436,-0.1722 -0.27816,-0.17661 -0.40179,-0.49009 -0.0927,-0.22076 -0.0927,-0.5519 0,-0.22959 0.0707,-0.44153 0.11479,-0.32672 0.37529,-0.51216 0.26491,-0.18986 0.62696,-0.18986 0.29141,0 0.521,0.12804 0.22959,0.12363 0.37088,0.34881 0.1457,0.22076 0.18985,0.50333 z m -1.08173,-0.3488 q -0.22959,0 -0.30465,0.21635 -0.0177,0.0486 -0.0221,0.0927 -0.009,0.0221 0.0177,0.0221 h 0.62696 q 0.0177,0 0.0177,-0.0177 0,-0.0353 -0.0177,-0.0883 -0.0309,-0.11038 -0.1148,-0.16778 -0.0795,-0.0574 -0.2031,-0.0574 z"
         id="path9" /><path
         style="font-weight:800;-inkscape-font-specification:'Barlow Ultra-Bold';text-align:end;text-anchor:end"
         d="m 107.40011,157.54053 q 0,-0.0221 0.0132,-0.0353 0.0177,-0.0177 0.0397,-0.0177 h 0.62697 q 0.0221,0 0.0353,0.0177 0.0177,0.0132 0.0177,0.0353 v 2.9847 q 0,0.0221 -0.0177,0.0397 -0.0132,0.0132 -0.0353,0.0132 h -0.62697 q -0.0221,0 -0.0397,-0.0132 -0.0132,-0.0177 -0.0132,-0.0397 v -0.1457 q 0,-0.0132 -0.009,-0.0132 -0.009,-0.004 -0.0177,0.004 -0.17661,0.24283 -0.50775,0.24283 -0.30024,0 -0.53425,-0.18102 -0.22959,-0.18103 -0.32672,-0.49451 -0.0707,-0.23842 -0.0707,-0.51216 0,-0.30907 0.0927,-0.55632 0.10155,-0.27375 0.32232,-0.44153 0.22517,-0.16777 0.54307,-0.16777 0.3179,0 0.48126,0.20751 0.009,0.0132 0.0177,0.009 0.009,-0.004 0.009,-0.0177 z m -0.0751,2.27385 q 0.0751,-0.14129 0.0751,-0.3753 0,-0.25608 -0.0839,-0.39737 -0.0927,-0.15453 -0.2605,-0.15453 -0.18102,0 -0.26933,0.15895 -0.0883,0.15011 -0.0883,0.39295 0,0.23401 0.0795,0.37971 0.0927,0.16778 0.27816,0.16778 0.17661,0 0.26933,-0.17219 z m 3.30701,-0.5784 q 0.0221,0.13246 0.0132,0.3488 -0.004,0.053 -0.0574,0.053 h -1.34665 q -0.009,0 -0.0177,0.009 -0.009,0.004 -0.004,0.0132 0.009,0.0486 0.0442,0.12804 0.053,0.0927 0.15895,0.15012 0.10596,0.0574 0.26049,0.0574 0.27816,0 0.43711,-0.18102 0.0177,-0.0221 0.0397,-0.0221 0.0221,0 0.0353,0.0177 l 0.33997,0.38854 q 0.0177,0.0132 0.0177,0.0353 0,0.0177 -0.0177,0.0353 -0.15453,0.16778 -0.38412,0.25609 -0.22518,0.0883 -0.49451,0.0883 -0.40178,0 -0.68436,-0.17219 -0.27816,-0.17661 -0.40178,-0.49009 -0.0927,-0.22076 -0.0927,-0.55191 0,-0.22959 0.0706,-0.44152 0.1148,-0.32673 0.37529,-0.51217 0.26492,-0.18985 0.62697,-0.18985 0.2914,0 0.52099,0.12804 0.2296,0.12363 0.37088,0.3488 0.14571,0.22077 0.18986,0.50334 z m -1.08173,-0.3488 q -0.22959,0 -0.30465,0.21634 -0.0177,0.0486 -0.0221,0.0927 -0.009,0.0221 0.0177,0.0221 h 0.62696 q 0.0177,0 0.0177,-0.0177 0,-0.0353 -0.0177,-0.0883 -0.0309,-0.11038 -0.11479,-0.16777 -0.0795,-0.0574 -0.2031,-0.0574 z m 2.74626,-0.0574 q 0,0.0221 -0.0177,0.0397 -0.0132,0.0132 -0.0353,0.0132 h -0.40178 q -0.0221,0 -0.0221,0.0221 v 0.80357 q 0,0.25167 0.2031,0.25167 h 0.16336 q 0.0221,0 0.0353,0.0177 0.0177,0.0132 0.0177,0.0353 v 0.51217 q 0,0.0486 -0.053,0.0574 -0.21193,0.009 -0.30906,0.009 -0.38413,0 -0.56957,-0.11921 -0.18544,-0.12363 -0.18985,-0.4636 v -1.10381 q 0,-0.0221 -0.0221,-0.0221 h -0.25167 q -0.0221,0 -0.0397,-0.0132 -0.0132,-0.0177 -0.0132,-0.0397 v -0.48126 q 0,-0.0221 0.0132,-0.0353 0.0177,-0.0177 0.0397,-0.0177 h 0.25167 q 0.0221,0 0.0221,-0.0221 v -0.53424 q 0,-0.0221 0.0132,-0.0353 0.0177,-0.0177 0.0397,-0.0177 h 0.59606 q 0.0221,0 0.0353,0.0177 0.0177,0.0132 0.0177,0.0353 v 0.53424 q 0,0.0221 0.0221,0.0221 h 0.40178 q 0.0221,0 0.0353,0.0177 0.0177,0.0132 0.0177,0.0353 z m 2.39306,0.4062 q 0.0221,0.13246 0.0132,0.3488 -0.004,0.053 -0.0574,0.053 h -1.34665 q -0.009,0 -0.0177,0.009 -0.009,0.004 -0.004,0.0132 0.009,0.0486 0.0442,0.12804 0.053,0.0927 0.15895,0.15012 0.10596,0.0574 0.26049,0.0574 0.27816,0 0.43711,-0.18102 0.0177,-0.0221 0.0397,-0.0221 0.0221,0 0.0353,0.0177 l 0.33997,0.38854 q 0.0177,0.0132 0.0177,0.0353 0,0.0177 -0.0177,0.0353 -0.15453,0.16778 -0.38412,0.25609 -0.22518,0.0883 -0.49451,0.0883 -0.40178,0 -0.68436,-0.17219 -0.27816,-0.17661 -0.40178,-0.49009 -0.0927,-0.22076 -0.0927,-0.55191 0,-0.22959 0.0706,-0.44152 0.1148,-0.32673 0.37529,-0.51217 0.26492,-0.18985 0.62697,-0.18985 0.2914,0 0.52099,0.12804 0.2296,0.12363 0.37088,0.3488 0.14571,0.22077 0.18986,0.50334 z m -1.08173,-0.3488 q -0.22959,0 -0.30465,0.21634 -0.0177,0.0486 -0.0221,0.0927 -0.009,0.0221 0.0177,0.0221 h 0.62696 q 0.0177,0 0.0177,-0.0177 0,-0.0353 -0.0177,-0.0883 -0.0309,-0.11038 -0.11479,-0.16777 -0.0795,-0.0574 -0.2031,-0.0574 z m 2.44603,1.72635 q -0.36205,0 -0.63579,-0.18102 -0.26933,-0.18103 -0.38413,-0.49892 -0.0839,-0.21193 -0.0839,-0.50775 0,-0.29582 0.0839,-0.50776 0.11038,-0.30906 0.38413,-0.48126 0.27374,-0.1766 0.63579,-0.1766 0.36647,0 0.64463,0.18102 0.27815,0.18102 0.37529,0.45918 0.0309,0.0795 0.0397,0.1722 0,0.0486 -0.0486,0.0574 l -0.61372,0.0927 h -0.009 q -0.0397,0 -0.053,-0.0442 l -0.009,-0.0397 q -0.009,-0.0353 -0.0177,-0.0618 -0.0397,-0.0839 -0.12363,-0.13687 -0.0795,-0.053 -0.18985,-0.053 -0.23401,0 -0.30907,0.20751 -0.0486,0.12363 -0.0486,0.33556 0,0.18986 0.0442,0.33114 0.0839,0.22518 0.31348,0.22518 0.11479,0 0.19868,-0.0574 0.0839,-0.0618 0.11921,-0.17219 0.004,-0.009 0.004,-0.0265 0.004,-0.004 0.004,-0.0177 0.0132,-0.053 0.0618,-0.0442 l 0.61813,0.0971 q 0.0442,0.009 0.0442,0.0486 0,0.0662 -0.0265,0.1457 -0.10597,0.30906 -0.38413,0.48126 -0.27374,0.17219 -0.63579,0.17219 z m 2.75952,-1.78375 q 0,0.0221 -0.0177,0.0397 -0.0132,0.0132 -0.0353,0.0132 h -0.40179 q -0.0221,0 -0.0221,0.0221 v 0.80357 q 0,0.25167 0.2031,0.25167 h 0.16336 q 0.0221,0 0.0353,0.0177 0.0177,0.0132 0.0177,0.0353 v 0.51217 q 0,0.0486 -0.053,0.0574 -0.21193,0.009 -0.30906,0.009 -0.38413,0 -0.56957,-0.11921 -0.18544,-0.12363 -0.18985,-0.4636 v -1.10381 q 0,-0.0221 -0.0221,-0.0221 h -0.25167 q -0.0221,0 -0.0397,-0.0132 -0.0132,-0.0177 -0.0132,-0.0397 v -0.48126 q 0,-0.0221 0.0132,-0.0353 0.0177,-0.0177 0.0397,-0.0177 h 0.25167 q 0.0221,0 0.0221,-0.0221 v -0.53424 q 0,-0.0221 0.0132,-0.0353 0.0177,-0.0177 0.0397,-0.0177 h 0.59606 q 0.0221,0 0.0353,0.0177 0.0177,0.0132 0.0177,0.0353 v 0.53424 q 0,0.0221 0.0221,0.0221 h 0.40179 q 0.0221,0 0.0353,0.0177 0.0177,0.0132 0.0177,0.0353 z m 0.67553,-0.73734 q -0.16778,0 -0.27816,-0.10597 -0.10596,-0.11038 -0.10596,-0.27816 0,-0.17219 0.10596,-0.27816 0.11038,-0.10596 0.27816,-0.10596 0.16778,0 0.27375,0.10596 0.11038,0.10597 0.11038,0.27816 0,0.16336 -0.11038,0.27375 -0.10597,0.11038 -0.27375,0.11038 z m -0.31789,2.48577 q -0.0221,0 -0.0397,-0.0132 -0.0132,-0.0177 -0.0132,-0.0397 v -2.17671 q 0,-0.0221 0.0132,-0.0353 0.0177,-0.0177 0.0397,-0.0177 h 0.62696 q 0.0221,0 0.0353,0.0177 0.0177,0.0132 0.0177,0.0353 v 2.17671 q 0,0.0221 -0.0177,0.0397 -0.0132,0.0132 -0.0353,0.0132 z m 2.10606,0.0353 q -0.39737,0 -0.67553,-0.21193 -0.27816,-0.21193 -0.37088,-0.57398 -0.053,-0.18102 -0.053,-0.39737 0,-0.24284 0.0574,-0.42828 0.10156,-0.3488 0.3753,-0.54307 0.27816,-0.19868 0.67111,-0.19868 0.38854,0 0.65787,0.19868 0.26933,0.19427 0.3753,0.53866 0.0618,0.19868 0.0618,0.42386 0,0.2031 -0.0486,0.38854 -0.0927,0.37088 -0.37088,0.58723 -0.27816,0.21634 -0.67994,0.21634 z m 0,-0.62696 q 0.12804,0 0.21193,-0.0795 0.0839,-0.0839 0.12363,-0.22518 0.0265,-0.1148 0.0265,-0.25167 0,-0.13246 -0.0309,-0.25608 -0.0353,-0.13687 -0.11921,-0.21193 -0.0839,-0.0751 -0.21193,-0.0751 -0.25608,0 -0.33556,0.28699 -0.0265,0.10596 -0.0265,0.25608 0,0.13687 0.0265,0.25167 0.0353,0.14129 0.11921,0.22518 0.0883,0.0795 0.21635,0.0795 z m 2.70212,-1.72635 q 0.34439,0 0.56515,0.22076 0.22076,0.21634 0.22076,0.59164 v 1.45261 q 0,0.0221 -0.0177,0.0397 -0.0132,0.0132 -0.0353,0.0132 h -0.62696 q -0.0221,0 -0.0397,-0.0132 -0.0132,-0.0177 -0.0132,-0.0397 v -1.29366 q 0,-0.15012 -0.0839,-0.24726 -0.0839,-0.0971 -0.21634,-0.0971 -0.13687,0 -0.22076,0.0971 -0.0839,0.0927 -0.0839,0.24726 v 1.29366 q 0,0.0221 -0.0177,0.0397 -0.0132,0.0132 -0.0353,0.0132 h -0.62696 q -0.0221,0 -0.0397,-0.0132 -0.0132,-0.0177 -0.0132,-0.0397 v -2.17671 q 0,-0.0221 0.0132,-0.0353 0.0177,-0.0177 0.0397,-0.0177 h 0.62696 q 0.0221,0 0.0353,0.0177 0.0177,0.0132 0.0177,0.0353 v 0.16336 q 0,0.0177 0.004,0.0221 0.009,0 0.0177,-0.0132 0.16778,-0.26049 0.52983,-0.26049 z"
         id="path10" /></g><path
       style="font-weight:800;font-size:4.83131px;line-height:1.25;font-family:Barlow;-inkscape-font-specification:'Barlow Ultra-Bold';letter-spacing:0px;word-spacing:0px;fill:#f1f1f1;stroke-width:0.278729"
       d="m 93.613699,164.39545 q -0.04831,0 -0.06764,-0.0435 l -0.570095,-1.28512 q -0.0097,-0.0193 -0.02899,-0.0193 h -0.318866 q -0.02416,0 -0.02416,0.0242 v 1.2658 q 0,0.0242 -0.01932,0.0435 -0.01449,0.0145 -0.03865,0.0145 h -0.686046 q -0.02416,0 -0.04348,-0.0145 -0.01449,-0.0193 -0.01449,-0.0435 v -3.26596 q 0,-0.0242 0.01449,-0.0386 0.01932,-0.0193 0.04348,-0.0193 h 1.434899 q 0.318866,0 0.560432,0.13045 0.241565,0.13044 0.37201,0.37201 0.135277,0.23673 0.135277,0.54593 0,0.3237 -0.159433,0.56044 -0.159433,0.23673 -0.444481,0.34302 -0.02416,0.01 -0.01449,0.0338 l 0.637733,1.32861 q 0.0097,0.0193 0.0097,0.029 0,0.0387 -0.05314,0.0387 z m -0.985587,-2.69587 q -0.02416,0 -0.02416,0.0241 v 0.68605 q 0,0.0242 0.02416,0.0242 h 0.536275 q 0.178759,0 0.289879,-0.0966 0.11112,-0.10146 0.11112,-0.26572 0,-0.1691 -0.11112,-0.27056 -0.11112,-0.10145 -0.289879,-0.10145 z"
       id="text1-7-6-3-6-0"
       aria-label="R" /><path
       style="font-weight:800;font-size:4.83131px;line-height:1.25;font-family:Barlow;-inkscape-font-specification:'Barlow Ultra-Bold';letter-spacing:0px;word-spacing:0px;fill:#f1f1f1;stroke-width:0.278729"
       d="m 103.63369,178.15712 q -0.0483,0 -0.0676,-0.0435 l -0.57009,-1.28513 q -0.01,-0.0193 -0.029,-0.0193 h -0.31887 q -0.0242,0 -0.0242,0.0242 v 1.2658 q 0,0.0242 -0.0193,0.0435 -0.0145,0.0145 -0.0387,0.0145 h -0.68605 q -0.0241,0 -0.0435,-0.0145 -0.0145,-0.0193 -0.0145,-0.0435 v -3.26596 q 0,-0.0242 0.0145,-0.0386 0.0193,-0.0193 0.0435,-0.0193 h 1.4349 q 0.31887,0 0.56043,0.13045 0.24157,0.13044 0.37201,0.37201 0.13528,0.23673 0.13528,0.54594 0,0.32369 -0.15943,0.56043 -0.15944,0.23673 -0.44448,0.34302 -0.0242,0.01 -0.0145,0.0338 l 0.63774,1.32861 q 0.01,0.0193 0.01,0.029 0,0.0386 -0.0532,0.0386 z m -0.98559,-2.69587 q -0.0242,0 -0.0242,0.0242 v 0.68604 q 0,0.0242 0.0242,0.0242 h 0.53628 q 0.17875,0 0.28987,-0.0966 0.11112,-0.10146 0.11112,-0.26572 0,-0.1691 -0.11112,-0.27055 -0.11112,-0.10146 -0.28987,-0.10146 z"
       id="text1-7-6-3-6-0-7"
       aria-label="R" /></g></svg>
